<?xml version="1.0" standalone="no"?>
<!DOCTYPE svg PUBLIC "-//W3C//DTD SVG 1.1//EN" "http://www.w3.org/Graphics/SVG/1.1/DTD/svg11.dtd" >
<svg xmlns="http://www.w3.org/2000/svg" xmlns:xlink="http://www.w3.org/1999/xlink" version="1.1">
<metadata></metadata>
<defs>
<font id="source_serif_problack" horiz-adv-x="1146" >
<font-face units-per-em="2048" ascent="1638" descent="-410" />
<missing-glyph horiz-adv-x="421" />
<glyph horiz-adv-x="0" />
<glyph horiz-adv-x="682" />
<glyph unicode=" "  horiz-adv-x="421" />
<glyph unicode="&#x09;" horiz-adv-x="421" />
<glyph unicode="&#xa0;" horiz-adv-x="421" />
<glyph unicode="!" horiz-adv-x="757" d="M379 -33q-90 0 -152.5 61.5t-62.5 149.5q0 90 62.5 151.5t152.5 61.5t152.5 -61.5t62.5 -151.5q0 -88 -62.5 -149.5t-152.5 -61.5zM379 1354q102 0 164.5 -56.5t62.5 -162.5q0 -55 -20.5 -153.5t-85.5 -281.5l-60 -161h-123l-59 161q-68 182 -87 280.5t-19 154.5 q0 106 61.5 162.5t165.5 56.5z" />
<glyph unicode="&#x22;" horiz-adv-x="991" d="M262 1487q84 0 133 -47t49 -140q0 -76 -21.5 -155.5t-31.5 -120.5l-65 -244h-125l-66 244q-6 25 -19.5 71t-23.5 100t-10 105q0 92 48 139.5t132 47.5zM727 1487q84 0 133 -47t49 -140q0 -76 -21.5 -155.5t-31.5 -120.5l-65 -244h-125l-66 244q-6 25 -19.5 71t-23.5 100 t-10 105q0 92 48 139.5t132 47.5z" />
<glyph unicode="#" horiz-adv-x="1193" d="M457 555h266l31 197h-269zM178 0l47 309h-192v246h229l29 197h-189v245h226l47 314h194l-47 -314h269l47 314h194l-47 -314h178v-245h-215l-28 -197h174v-246h-211l-47 -309h-197l47 309h-266l-47 -309h-195z" />
<glyph unicode="$" d="M502 -236v203q-197 6 -297.5 85t-100.5 210q23 59 61 83t77 24q66 0 101.5 -32t49.5 -112l23 -137q20 -2 40.5 -4t45.5 -4v416l-10 4q-186 59 -284.5 163.5t-98.5 247.5q0 160 105 267.5t304 128.5v190h146v-188q162 -10 257 -81t105 -196q-8 -63 -45 -88.5t-78 -25.5 q-59 0 -110.5 33.5t-67.5 148.5l-14 94q-10 2 -22.5 2t-24.5 2v-387q217 -70 312 -175.5t95 -256.5q0 -158 -111.5 -268.5t-312.5 -137.5v-209h-145zM768 272q0 66 -25.5 102t-95.5 68v-342q121 47 121 172zM397 1026q0 -59 28 -99t93 -69v326q-55 -16 -88 -54t-33 -104z " />
<glyph unicode="%" horiz-adv-x="1802" d="M514 -72l-110 72l901 1341l110 -71zM326 893q0 -139 11 -214t32.5 -102.5t48.5 -27.5q29 0 50.5 27.5t33.5 102t12 214.5q0 141 -12 216t-33.5 103.5t-50.5 28.5q-27 0 -48.5 -27.5t-32.5 -103.5t-11 -217zM418 1311q86 0 160.5 -45.5t120 -137.5t45.5 -235 q0 -141 -45.5 -232.5t-120 -136.5t-160.5 -45t-160 45t-118 136t-44 233q0 143 44 235t118 137.5t160 45.5zM1288 396q0 -139 11 -214t32.5 -102.5t48.5 -27.5q29 0 50.5 27.5t33.5 102t12 214.5q0 141 -12 216t-33.5 103.5t-50.5 28.5q-27 0 -48.5 -27.5t-32.5 -103.5 t-11 -217zM1380 814q86 0 160.5 -45.5t120 -137.5t45.5 -235q0 -141 -45.5 -232.5t-120 -136.5t-160.5 -45t-160 45t-118 136t-44 233q0 143 44 235t118 137.5t160 45.5z" />
<glyph unicode="&#x26;" horiz-adv-x="1476" d="M580 936q10 -16 26.5 -35.5t42.5 -54.5q61 84 82 159.5t21 129.5q0 61 -30 98t-89 37q-55 0 -87 -40t-32 -102q0 -39 14.5 -86t51.5 -106zM1417 0q-82 -18 -127 -25.5t-92 -7.5q-94 0 -171 24.5t-155 88.5q-8 6 -15 13t-15 13q-53 -55 -144.5 -97t-238.5 -42 q-141 0 -232.5 49.5t-136.5 130t-45 175.5q0 111 69.5 202.5t241.5 163.5q-8 8 -10 12q-68 90 -92.5 168t-24.5 152q0 158 111 249t297 91q178 0 275.5 -73t97.5 -193q0 -102 -73 -176t-230 -136q29 -31 64.5 -69.5t82.5 -91.5q51 -55 93 -99.5t77 -83.5q41 78 64.5 148.5 t41.5 161.5l-155 26v96h467v-96l-137 -22q-41 -117 -88.5 -205t-118.5 -185q35 -37 67.5 -72.5t71.5 -76.5l201 -47zM598 385q-61 78 -105 132t-75 91q-53 -82 -53 -186q0 -86 37.5 -145.5t99 -90t131.5 -30.5q80 0 133 26q-47 51 -89 104.5t-79 98.5z" />
<glyph unicode="'" horiz-adv-x="526" d="M262 1487q84 0 133 -47t49 -140q0 -76 -21.5 -155.5t-31.5 -120.5l-65 -244h-125l-66 244q-6 25 -19.5 71t-23.5 100t-10 105q0 92 48 139.5t132 47.5z" />
<glyph unicode="(" horiz-adv-x="804" d="M420 569q0 -158 34.5 -290t106.5 -253.5t182 -250.5l-112 -99q-233 170 -360.5 395.5t-127.5 497.5q0 274 127 498.5t361 394.5l112 -98q-111 -127 -182.5 -249t-106 -254t-34.5 -292z" />
<glyph unicode=")" horiz-adv-x="804" d="M385 569q0 160 -35 292t-105.5 254t-183.5 249l113 98q233 -170 360.5 -394t127.5 -499q0 -272 -127 -497.5t-361 -395.5l-113 99q113 129 183.5 250.5t105.5 253.5t35 290z" />
<glyph unicode="*" horiz-adv-x="874" d="M436 1497q59 0 88 -39t29 -88q0 -37 -12.5 -80t-34.5 -104l-21 -51l43 34q84 66 131.5 86.5t79.5 20.5q41 0 77 -28.5t36 -90.5q0 -70 -68.5 -96.5t-212.5 -22.5l-55 2l47 -30q106 -74 140 -117t34 -90q0 -39 -32.5 -75t-81.5 -36q-68 0 -104 61.5t-68 174.5l-17 53 l-14 -53q-39 -135 -79 -184.5t-95 -49.5q-51 0 -83 38t-32 73q0 53 43 100t133 105l47 30l-53 -2q-156 -8 -219.5 22t-63.5 101q0 59 38 88t77 29q47 0 95 -27.5t116 -81.5l43 -34l-20 51q-45 129 -45 184q0 49 28.5 88t85.5 39z" />
<glyph unicode="+" horiz-adv-x="1126" d="M457 143v410h-396v205h396v399h213v-399h395v-205h-395v-410h-213z" />
<glyph unicode="," horiz-adv-x="614" d="M508 137q0 -111 -40 -200t-103.5 -156.5t-139 -111.5t-149.5 -64l-29 94q100 53 161.5 121.5t98.5 134.5l-69 33q-74 35 -103 84t-29 96q0 84 59.5 141.5t145.5 57.5q49 0 88 -12.5t76 -45.5q20 -49 26.5 -86t6.5 -86z" />
<glyph unicode="-" horiz-adv-x="716" d="M82 420v205h553v-205h-553z" />
<glyph unicode="." horiz-adv-x="614" d="M307 -33q-84 0 -142.5 57.5t-58.5 139.5q0 84 58.5 143.5t142.5 59.5t142.5 -59.5t58.5 -143.5q0 -82 -58.5 -139.5t-142.5 -57.5z" />
<glyph unicode="/" horiz-adv-x="839" d="M25 -328l546 1782h246l-547 -1782h-245z" />
<glyph unicode="0" d="M428 639q0 -225 17.5 -347t50 -167t75.5 -45t77 46t53.5 167t19.5 346q0 227 -19.5 348t-53.5 167t-77 46t-75.5 -45t-50 -167t-17.5 -349zM571 1311q135 0 251 -72t186.5 -220.5t70.5 -379.5q0 -229 -70.5 -377.5t-186 -221.5t-251.5 -73q-135 0 -249.5 73t-183 221.5 t-68.5 377.5q0 231 68.5 379.5t183 220.5t249.5 72z" />
<glyph unicode="1" d="M213 1188l545 115l28 -21l-8 -291v-567v-128t2 -130l215 -62v-104h-845v104l231 60q2 66 2 131v129v647l-170 -16v133z" />
<glyph unicode="2" d="M111 0v203q66 66 131 128t127 124q94 96 158.5 173t97.5 155.5t33 174.5q0 117 -51.5 179.5t-141.5 62.5h-15h-18l-18 -147q-10 -78 -37 -118t-61.5 -54.5t-67.5 -14.5q-47 0 -86 24.5t-59 65.5q0 115 68.5 194t182 120t250.5 41q156 0 253.5 -48.5t143.5 -128t46 -180.5 q0 -154 -130 -290t-392 -287q-39 -23 -78 -45.5t-76 -44.5h690v-287h-950z" />
<glyph unicode="3" d="M383 721h51q109 0 171.5 55t62.5 191q0 121 -51.5 177t-141.5 56h-7h-9l-19 -145q-10 -82 -59 -115t-107 -33q-39 0 -70.5 17.5t-49.5 44.5q0 123 58 198.5t154.5 109.5t206.5 34q164 0 268.5 -44t155 -119t50.5 -167q0 -90 -67 -177t-232 -130q188 -33 262.5 -119 t74.5 -223q0 -158 -138 -261.5t-394 -103.5q-238 0 -352.5 96.5t-114.5 262.5q18 53 58 76.5t79 23.5q68 0 111 -40t53 -157l12 -149h11.5h11.5q129 0 196.5 63.5t67.5 206.5q0 125 -63.5 188.5t-178.5 63.5h-61v119z" />
<glyph unicode="4" d="M1079 223h-178v-223h-338v223h-522v219l590 858h270v-811h178v-266zM229 489h334v496z" />
<glyph unicode="5" d="M1100 385q0 -143 -76 -235.5t-205 -137.5t-289 -45q-213 0 -329.5 99.5t-116.5 259.5q18 51 58 75.5t85 24.5q70 0 110 -43t48 -143l10 -154q29 -6 64 -6q96 0 163.5 69.5t67.5 194.5q0 139 -57.5 210t-161.5 71q-51 0 -97 -5.5t-98 -17.5l-57 51l43 625h782v-287h-657 l-16 -223q47 10 97 13t103 3q250 0 389.5 -101t139.5 -298z" />
<glyph unicode="6" d="M567 80q55 0 97 74.5t42 236.5q0 121 -33.5 192.5t-101.5 71.5q-29 0 -58.5 -8t-60.5 -29q-4 -39 -7 -79.5t-3 -83.5q0 -375 125 -375zM1091 432q0 -119 -44 -207t-118.5 -145t-167 -85t-186.5 -28q-156 0 -274.5 63.5t-185 186.5t-66.5 299q0 160 69.5 297t194.5 243.5 t295 173t371 81.5l12 -117q-213 -55 -341 -165.5t-177 -299.5q106 74 258 74q125 0 204.5 -49t117.5 -133.5t38 -188.5z" />
<glyph unicode="7" d="M203 20l616 971h-706v287h946v-178l-479 -1100h-356z" />
<glyph unicode="8" d="M421 1049q0 -39 17.5 -79t69 -81t147.5 -90q43 70 57.5 123t14.5 112q0 70 -40 117t-110 47q-61 0 -108.5 -39.5t-47.5 -109.5zM88 266q0 100 66.5 178t191.5 129q-115 63 -178.5 152.5t-63.5 204.5q0 117 62.5 202t172 132t248.5 47q156 0 252 -41t140.5 -106.5 t44.5 -141.5q0 -82 -56.5 -150.5t-195.5 -128.5q289 -143 288 -395q0 -176 -135 -278.5t-393 -102.5q-233 0 -338.5 84t-105.5 215zM397 285q0 -88 48 -146.5t122 -58.5q80 0 115.5 50t35.5 110q0 78 -52 142t-193 132q-41 -57 -58.5 -111.5t-17.5 -117.5z" />
<glyph unicode="9" d="M437 903q0 -131 46 -206.5t128 -75.5q51 0 92 20q4 37 6 78t2 86q0 162 -16.5 247t-46 116.5t-70.5 31.5q-57 0 -99 -66.5t-42 -230.5zM1100 752q0 -217 -114.5 -383t-317.5 -270.5t-471 -139.5l-21 117q154 49 257.5 110.5t165 146.5t87.5 206q-43 -25 -97 -40.5 t-122 -15.5q-180 0 -294.5 99.5t-114.5 285.5q0 139 72.5 237.5t189.5 152t243 53.5q262 0 399.5 -147.5t137.5 -411.5z" />
<glyph unicode=":" horiz-adv-x="614" d="M307 643q-84 0 -142.5 57.5t-58.5 139.5q0 84 58.5 143.5t142.5 59.5t142.5 -59.5t58.5 -143.5q0 -82 -58.5 -139.5t-142.5 -57.5zM307 -33q-84 0 -142.5 57.5t-58.5 139.5q0 84 58.5 143.5t142.5 59.5t142.5 -59.5t58.5 -143.5q0 -82 -58.5 -139.5t-142.5 -57.5z" />
<glyph unicode=";" horiz-adv-x="614" d="M307 643q-84 0 -142.5 57.5t-58.5 139.5q0 84 58.5 143.5t142.5 59.5t142.5 -59.5t58.5 -143.5q0 -82 -58.5 -139.5t-142.5 -57.5zM508 137q0 -111 -40 -200t-103.5 -156.5t-139 -111.5t-149.5 -64l-29 94q100 53 161.5 121.5t98.5 134.5l-69 33q-74 35 -103 84t-29 96 q0 84 59.5 141.5t145.5 57.5q49 0 88 -12.5t76 -45.5q20 -49 26.5 -86t6.5 -86z" />
<glyph unicode="&#x3c;" horiz-adv-x="1126" d="M61 569v176l883 437l100 -205l-692 -320l692 -319l-100 -205z" />
<glyph unicode="=" horiz-adv-x="1126" d="M1065 334h-1004v205h1004v-205zM1065 772h-1004v205h1004v-205z" />
<glyph unicode="&#x3e;" horiz-adv-x="1126" d="M1065 745v-176l-883 -436l-100 205l692 319l-692 320l100 205z" />
<glyph unicode="?" horiz-adv-x="946" d="M371 -33q-88 0 -152.5 61.5t-64.5 149.5q0 90 64.5 151.5t152.5 61.5q92 0 153.5 -61.5t61.5 -151.5q0 -88 -61.5 -149.5t-153.5 -61.5zM836 901q0 -113 -53.5 -179.5t-180.5 -103.5l-96 -28q-43 -12 -58.5 -23.5t-21.5 -50.5l-4 -35h-133l-23 70q-18 55 -27.5 98 t-9.5 84q0 59 40 91t122 48l170 35q53 10 72.5 24.5t19.5 47.5q0 12 -2 18l-299 41q-119 16 -160.5 59.5t-41.5 106.5q0 125 169 172q102 -23 194.5 -73t165.5 -115.5t115 -140t42 -146.5z" />
<glyph unicode="@" horiz-adv-x="1869" d="M791 461q0 -94 35.5 -138t84.5 -44q23 0 44.5 10t43.5 37l78 481q-16 16 -33.5 22.5t-35.5 6.5q-47 0 -98.5 -49.5t-85 -133t-33.5 -192.5zM1288 76q-100 0 -166.5 52t-91.5 134q-66 -106 -139.5 -146t-155.5 -40q-104 0 -177 77.5t-73 231.5q0 104 38 212t106.5 199 t160 146t197.5 55q70 0 124 -26.5t91 -67.5l129 72l60 -37l-84 -516q-18 -115 -4 -152t69 -37q47 0 102.5 57.5t96.5 161t41 242.5q0 250 -146.5 389.5t-423.5 139.5q-180 0 -320 -66.5t-238.5 -181.5t-149.5 -256t-51 -293q0 -276 156.5 -432t434.5 -156q78 0 157 11.5 t163 35.5l33 -106q-90 -37 -190.5 -63.5t-221.5 -26.5q-229 0 -387 96t-238.5 255t-80.5 351q0 174 61 342t182 304.5t297 217t406 80.5q233 0 392 -87t238.5 -232.5t79.5 -317.5q0 -180 -65.5 -321t-174 -221t-237.5 -80z" />
<glyph unicode="A" horiz-adv-x="1392" d="M578 983l-156 -485h307zM20 0v121l162 22l410 1192h246l413 -1208l111 -12v-115h-662v115l142 20l-74 234h-387l-72 -224l142 -24v-121h-431z" />
<glyph unicode="B" horiz-adv-x="1351" d="M649 643h-51q0 -137 1 -264t3 -252h43q121 0 191.5 64.5t70.5 191.5q0 139 -64.5 199.5t-193.5 60.5zM645 1208h-43q-2 -111 -3 -223.5t-1 -226.5h37q109 0 161 62.5t52 174.5q0 102 -48.5 157.5t-154.5 55.5zM57 1214v121h691q186 0 292.5 -41t151.5 -110.5t45 -157.5 q0 -68 -30.5 -128t-108.5 -105t-221 -70q240 -25 342 -113t102 -231q0 -61 -27.5 -128t-99.5 -124t-204 -92t-341 -35h-592v121l142 14q2 127 2 254v256v43v256t-2 256z" />
<glyph unicode="C" horiz-adv-x="1265" d="M776 -41q-145 0 -275 40t-229.5 126t-157 220t-57.5 323q0 193 61.5 327.5t166 218.5t237.5 123t275 39q129 0 223 -27.5t180 -74.5l8 -326h-168l-65 281q-55 27 -121 26q-98 0 -184 -58t-139.5 -188t-53.5 -343q0 -211 52.5 -340t137.5 -186.5t179 -57.5q72 0 143 33 l64 272h168l-9 -321q-76 -43 -185.5 -75t-250.5 -32z" />
<glyph unicode="D" horiz-adv-x="1439" d="M606 637q0 -127 1 -255t3 -255h29q152 0 243 141.5t91 401.5q0 262 -92.5 400t-243.5 138h-27q-2 -125 -3 -252t-1 -256v-63zM57 1214v121h611q227 0 386.5 -82t243.5 -230.5t84 -348.5q0 -211 -90 -361.5t-258 -231.5t-401 -81h-576v121l142 14q2 123 2 249v251v65v250 t-2 250z" />
<glyph unicode="E" horiz-adv-x="1210" d="M57 1214v121h1057l14 -348h-192l-39 227h-287q-2 -113 -3 -227.5t-1 -228.5h189l24 147h129v-424h-129l-22 146h-191q0 -135 1 -260t3 -248h328l39 229h192l-14 -348h-1098v121l142 14q2 123 2 249v251v65v250t-2 250z" />
<glyph unicode="F" horiz-adv-x="1187" d="M57 1214v121h1076l14 -348h-193l-39 227h-305q-2 -113 -3 -227.5t-1 -228.5h191l24 147h129v-444h-129l-26 166h-189v-251t2 -237l183 -18v-121h-734v121l142 14q2 123 2 249v251v65v250t-2 250z" />
<glyph unicode="G" horiz-adv-x="1376" d="M774 -41q-213 0 -374.5 82t-252 241.5t-90.5 389.5q0 330 192.5 517t555.5 187q90 0 195.5 -22.5t195.5 -69.5l8 -328h-172l-67 279q-55 20 -111 20q-98 0 -184 -59t-139.5 -188t-53.5 -336t52.5 -338t136.5 -192.5t178 -61.5h9h9v92q0 90 -1 175t-3 173l-172 27v121h660 v-121l-99 -15q-2 -92 -3 -183t-1 -187v-84q-106 -63 -218 -91t-251 -28z" />
<glyph unicode="H" horiz-adv-x="1548" d="M817 1214v121h674v-121l-137 -14q-2 -123 -2 -248v-252v-65v-250t2 -250l137 -14v-121h-674v121l127 12q2 125 2 249v241h-344v-250t2 -240l127 -12v-121h-674v121l138 14q2 123 2 249v251v65v250t-2 250l-138 14v121h674v-121l-127 -12q-2 -111 -2 -223.5v-226.5h344 v225.5t-2 224.5z" />
<glyph unicode="I" horiz-adv-x="808" d="M57 1214v121h695v-121l-144 -14q-2 -123 -2 -248v-252v-63v-251t2 -251l144 -14v-121h-695v121l142 14q2 123 2 249v251v65v250t-2 250z" />
<glyph unicode="J" horiz-adv-x="827" d="M61 1214v121h715v-121l-143 -14q-2 -117 -2 -234.5v-238.5v-170q0 -264 -41 -456.5t-154 -305.5q-82 -82 -173 -119.5t-200 -37.5q-184 0 -274 141q0 76 51 124t127 48q59 0 105.5 -34t95.5 -101l37 -54q18 47 24.5 131t6.5 207q0 162 -4.5 441.5t-10.5 656.5z" />
<glyph unicode="K" horiz-adv-x="1449" d="M887 1214v121h475v-121l-191 -24l-245 -289l401 -768l113 -12v-121h-619v121l70 8l-223 467l-80 -94v-184.5t2 -184.5l110 -12v-121h-643v121l142 14q2 123 2 249v251v65v250t-2 250l-142 14v121h674v-121l-141 -14q-2 -123 -2 -248v-252v-38l426 528z" />
<glyph unicode="L" horiz-adv-x="1175" d="M57 1214v121h715v-121l-164 -16q-2 -123 -2 -247v-251v-94q0 -111 1 -233.5t3 -249.5h310l55 285h180l-20 -408h-1078v121l142 14q2 121 2 234.5v205.5v125v250t-2 250z" />
<glyph unicode="M" horiz-adv-x="1828" d="M20 0v121l203 24v1049l-178 20v121h606l283 -807l266 807h563v-121l-131 -14q-2 -125 -2 -250v-250v-65v-251t2 -249l142 -14v-121h-693v121l140 16q4 123 3 236.5t1 201.5l6 418l-334 -993h-180l-359 1001l9 -413v-441l170 -26v-121h-517z" />
<glyph unicode="N" horiz-adv-x="1484" d="M877 1214v121h559v-121l-174 -26v-1188h-215l-680 952v-805l241 -26v-121h-559v121l174 24v1008l-35 49l-139 10v123h522l547 -749v602z" />
<glyph unicode="O" horiz-adv-x="1433" d="M717 -41q-129 0 -248 43t-212 131t-146.5 221t-53.5 314q0 180 54.5 313t146.5 221t211 131t248 43t247.5 -43t211 -131t146.5 -221t54 -313t-53 -313.5t-146.5 -221.5t-212 -131t-247.5 -43zM717 84q88 0 140 72.5t75.5 204t23.5 307.5t-23.5 307t-75.5 204.5t-140 73.5 q-86 0 -139.5 -73.5t-77 -204.5t-23.5 -307t23.5 -307.5t77 -204t139.5 -72.5z" />
<glyph unicode="P" horiz-adv-x="1273" d="M627 1208h-17q-2 -125 -3 -252t-1 -256v-73h29q115 0 177 85t62 222q0 139 -66 206.5t-181 67.5zM57 1214v121h559q231 0 368.5 -49t199 -140t61.5 -214q0 -117 -55 -214t-187.5 -155.5t-359.5 -58.5h-37v-173t2 -192l183 -18v-121h-734v121l142 14q2 123 2 249v251v65 v250t-2 250z" />
<glyph unicode="Q" horiz-adv-x="1433" d="M717 84q88 0 140 72.5t75.5 204t23.5 307.5t-23.5 307t-75.5 204.5t-140 73.5q-86 0 -139.5 -73.5t-77 -204.5t-23.5 -307t23.5 -307.5t77 -204t139.5 -72.5zM1004 -414q-221 0 -345 109.5t-139 290.5q-129 37 -234.5 123t-167 226t-61.5 333q0 180 54.5 313t146.5 221 t211 131t248 43t247.5 -43t211 -131t146.5 -221t54 -313q0 -197 -64.5 -339.5t-173 -228.5t-241.5 -118q4 -104 59.5 -164t145.5 -60q31 0 70.5 5.5t72.5 19.5l53 -131q-51 -33 -127.5 -49.5t-166.5 -16.5z" />
<glyph unicode="R" horiz-adv-x="1425" d="M647 1208h-45q-2 -125 -3 -247.5t-1 -225.5h45q98 0 150.5 35t72 89t19.5 114q0 121 -62.5 178t-175.5 57zM57 1214v121h705q244 0 373 -88t129 -243q0 -66 -33 -129.5t-113 -113.5t-225 -73q137 -16 211 -61t105.5 -118t43.5 -175l25 -197l147 -16v-121 q-59 -12 -96 -19.5t-70.5 -10.5t-87.5 -3q-143 0 -230 52.5t-101 189.5l-21 201q-8 96 -44 149t-113 53h-64v-242.5t2 -234.5l150 -14v-121h-693v121l142 14q2 123 2 249v251v65v250t-2 250z" />
<glyph unicode="S" horiz-adv-x="1132" d="M526 -41q-115 0 -240.5 24.5t-222.5 82.5l13 311h217l41 -258q92 -31 194 -31q96 0 141.5 52.5t45.5 121.5q0 74 -34 115t-112 78l-90 43q-190 90 -290.5 196.5t-100.5 280.5q0 188 140.5 294.5t387.5 106.5q113 0 221.5 -26.5t186.5 -75.5l-18 -295h-213l-37 244 q-61 25 -127 24q-76 0 -130.5 -48t-54.5 -120q0 -76 43 -118.5t125 -83.5l103 -50q129 -61 210 -123.5t118.5 -139.5t37.5 -183q0 -121 -60 -216t-183.5 -150.5t-311.5 -55.5z" />
<glyph unicode="T" horiz-adv-x="1323" d="M41 948l4 387h1235l2 -387h-190l-35 266h-189q-2 -125 -3 -254t-1 -260v-63v-250t2 -250l164 -16v-121h-735v121l162 16q2 123 2 248v250v65v256t-4 258h-187l-35 -266h-192z" />
<glyph unicode="U" horiz-adv-x="1499" d="M967 1214v121h487v-121l-166 -12v-614q0 -328 -144.5 -478.5t-416.5 -150.5q-152 0 -272.5 52t-190 173t-69.5 322v223v234.5t-2 236.5l-142 14v121h705v-121l-154 -14q-2 -117 -2 -234.5v-236.5v-156q0 -223 65.5 -317t206.5 -94q123 0 197 95t74 310v635z" />
<glyph unicode="V" horiz-adv-x="1343" d="M911 1225v110h432v-121l-141 -24l-418 -1190h-245l-424 1204l-105 10v121h703v-110l-166 -23l254 -786l264 780z" />
<glyph unicode="W" horiz-adv-x="2025" d="M1606 1214v121h419v-121l-155 -26l-369 -1188h-246l-262 879l-264 -879h-246l-364 1204l-109 10v121h668v-121l-137 -14l194 -776l219 774l-127 16v121h637v-121l-168 -20l211 -786l226 786z" />
<glyph unicode="X" horiz-adv-x="1345" d="M16 1214v121h668v-121l-100 -10l178 -311l188 315l-106 6v121h411v-121l-143 -8l-281 -434l367 -637l135 -14v-121h-712v121l133 14l-205 357l-230 -363l115 -8v-121h-422v121l144 10l323 479l-338 590z" />
<glyph unicode="Y" horiz-adv-x="1271" d="M10 1214v121h695v-121l-138 -16l211 -477l213 473l-125 20v121h406v-121l-135 -24l-293 -588v-198.5t1 -144t1 -122.5l164 -16v-121h-736v121l162 16q2 78 2 166v221l-332 682z" />
<glyph unicode="Z" horiz-adv-x="1163" d="M41 0v102l610 1110h-360l-53 -264h-177l17 387h1032v-102l-610 -1110h391l51 264h180l-16 -387h-1065z" />
<glyph unicode="[" horiz-adv-x="737" d="M211 324v491q0 162 -1 325t-5 324h512v-121l-217 -20q-2 -125 -2 -253v-255v-491v-253t2 -255l217 -21v-121h-512q4 158 5 322t1 328z" />
<glyph unicode="\" horiz-adv-x="839" d="M815 -328h-246l-546 1782h245z" />
<glyph unicode="]" horiz-adv-x="737" d="M526 815v-491q0 -162 1 -325t5 -325h-512v121l218 21q2 125 2 253v255v491v254t-2 254l-218 20v121h512q-4 -158 -5 -321.5t-1 -327.5z" />
<glyph unicode="^" horiz-adv-x="1126" d="M82 467l387 586h186l389 -586l-172 -117l-311 469l-311 -469z" />
<glyph unicode="_" horiz-adv-x="1126" d="M82 -205v205h962v-205h-962z" />
<glyph unicode="`" horiz-adv-x="819" d="M618 1202l-88 -72q-20 14 -44.5 31t-64.5 45.5t-108 75.5t-110.5 93t-42.5 102q0 59 39.5 94t84.5 35q59 0 97.5 -35t83.5 -111q49 -78 77.5 -126t46 -76.5t29.5 -55.5z" />
<glyph unicode="a" horiz-adv-x="1105" d="M848 -33q-96 0 -154.5 38t-85.5 108q-59 -66 -119.5 -106t-171.5 -40q-121 0 -193.5 69.5t-72.5 194.5q0 80 36 142.5t127 115t257 95.5q25 6 57.5 15t67.5 17v74q0 131 -29.5 180.5t-126.5 49.5h-15h-15v-70q0 -125 -51.5 -177t-116.5 -52q-125 0 -156 110 q0 133 126 216t374 83q213 0 300 -93t87 -304v-469q0 -35 35 -35q12 0 24 9t31 36l59 -33q-37 -94 -101 -134t-173 -40zM403 295q0 -76 31 -113t76 -37q14 0 31.5 7.5t54.5 31.5v336q-31 -8 -59 -22q-43 -20 -88.5 -69.5t-45.5 -133.5z" />
<glyph unicode="b" horiz-adv-x="1275" d="M57 -2v104l93 21q2 74 2 158v147v850l-111 14v92l467 93l35 -23l-8 -285v-258q121 119 290 119q113 0 205 -58.5t146.5 -174t54.5 -291.5q0 -168 -63.5 -289t-165 -185.5t-216.5 -64.5q-88 0 -153.5 30t-114.5 85l-41 -115zM637 827q-27 0 -50.5 -8t-45.5 -22v-604 q41 -29 96 -29q82 0 131 84t49 258q0 176 -49 248.5t-131 72.5z" />
<glyph unicode="c" horiz-adv-x="1071" d="M575 -33q-139 0 -259.5 58.5t-195.5 175t-75 295.5q0 170 78 289.5t211 182t297 62.5q115 0 201 -43t136 -113.5t54 -154.5q-39 -119 -156 -119q-63 0 -116.5 49t-59.5 185l-4 86h-8q-47 0 -99.5 -36t-88 -119t-35.5 -224q0 -170 72.5 -261.5t195.5 -91.5q68 0 117 28 t92 69l80 -78q-66 -125 -179 -182.5t-258 -57.5z" />
<glyph unicode="d" horiz-adv-x="1239" d="M459 494q0 -156 51 -240t133 -84q45 0 84 23v622q-33 18 -76 19q-84 0 -138 -85t-54 -255zM756 -25l-19 111q-117 -119 -286 -119q-113 0 -205 58.5t-146.5 174t-54.5 289.5q0 172 67.5 293t173 184.5t216.5 63.5q82 0 139 -24.5t100 -69.5v336l-131 20v92l480 93l34 -23 l-8 -285v-1046l74 -19v-104z" />
<glyph unicode="e" horiz-adv-x="1077" d="M571 920q-47 0 -79.5 -70t-36.5 -260h96q74 0 99.5 29.5t25.5 107.5q0 106 -32 149.5t-73 43.5zM578 -33q-154 0 -274 63.5t-189.5 183.5t-69.5 288q0 133 47 231t127 165t178.5 99.5t198.5 32.5q147 0 244.5 -60.5t146.5 -161.5t49 -226q0 -33 -2 -56.5t-8 -52.5h-569 q16 -150 88.5 -217.5t163.5 -67.5q78 0 134 28t99 69l80 -78q-66 -125 -179 -182.5t-265 -57.5z" />
<glyph unicode="f" horiz-adv-x="747" d="M55 0v104l92 21q2 78 3.5 153.5t1.5 151.5v414h-117v135l123 14q18 127 58 207t101 141q80 80 184.5 118t200.5 38q90 0 167 -35t98 -127q0 -66 -41 -109.5t-115 -43.5q-57 0 -105.5 42t-93.5 138l-4 8q-45 -57 -60.5 -142t-10.5 -231h192v-153h-188v-414v-144.5 t2 -146.5l147 -35v-104h-635z" />
<glyph unicode="g" horiz-adv-x="1132" d="M510 479q61 0 88 59.5t27 166.5q0 109 -29 166t-86 57t-84 -57.5t-27 -165.5q0 -106 25 -166t86 -60zM225 -154q0 -88 64.5 -128t212.5 -40q150 0 223.5 39t73.5 97q0 35 -29 67.5t-100 32.5h-205q-66 0 -122 5t-101 20q-17 -40 -17 -93zM510 377q-117 0 -201 24 q-14 -31 -14 -77q0 -33 27.5 -52.5t91.5 -19.5h227q174 0 274.5 -40t142.5 -110.5t42 -162.5q0 -111 -73 -200t-216 -141.5t-352 -52.5q-178 0 -274.5 35t-133.5 89.5t-37 111.5q0 66 41 118t117 85q-63 29 -89 73.5t-26 94.5q0 80 46.5 148.5t121.5 131.5 q-88 45 -128 115.5t-40 152.5q0 90 46.5 165t145.5 120t261 45q123 0 210 -26.5t140 -71.5l230 104l32 -20v-170h-192q33 -63 33 -146q0 -86 -46.5 -159.5t-145.5 -118.5t-261 -45z" />
<glyph unicode="h" horiz-adv-x="1277" d="M55 0v104l95 23q2 74 2 157v146v842l-111 20v92l467 93l35 -23l-8 -285v-301q82 96 150.5 129t154.5 33q137 0 226 -87t89 -255v-258v-149.5t2 -157.5l86 -19v-104h-567v104l88 21q2 74 2 158v147v232q0 84 -17.5 116.5t-68.5 32.5q-31 0 -66.5 -19.5t-72.5 -54.5v-307 v-148t2 -161l78 -17v-104h-566z" />
<glyph unicode="i" horiz-adv-x="663" d="M57 0v104l93 21q2 76 2 159v146v98q0 84 -1 140.5t-6 117.5l-110 19v84l475 141l37 -22l-6 -306v-272v-148t2 -159l86 -19v-104h-572zM342 1151q-78 0 -133 50t-55 126q0 78 55 127t133 49t133 -49t55 -127q0 -76 -55 -126t-133 -50z" />
<glyph unicode="j" horiz-adv-x="655" d="M25 -475q-117 0 -190 45t-105 106q4 84 64.5 130.5t127.5 46.5q59 0 112.5 -36t86.5 -108l16 -37q10 18 13 41q10 53 7 131t-8.5 161t-5.5 151v372q0 84 -1 140.5t-5 117.5l-110 19v84l475 141l37 -22l-7 -306v-630q0 -104 -14 -175t-44 -123.5t-79 -101.5 q-88 -88 -192 -117.5t-178 -29.5zM334 1151q-78 0 -133.5 50t-55.5 126q0 78 55.5 127t133.5 49t133 -49t55 -127q0 -76 -55 -126t-133 -50z" />
<glyph unicode="k" horiz-adv-x="1267" d="M55 0v104l95 23q2 76 2 163v140v842l-111 20v92l473 93l35 -23l-8 -285v-596l321 308l-153 20v96h499v-96l-180 -24l-164 -148l271 -590l129 -35v-104h-476l-194 481l-53 -47v-152.5t2 -158.5l88 -19v-104h-576z" />
<glyph unicode="l" horiz-adv-x="684" d="M55 0v104l92 21q2 78 3.5 153.5t1.5 151.5v842l-111 20v92l473 93l35 -23l-8 -285v-739q0 -76 1 -152.5t3 -154.5l92 -19v-104h-582z" />
<glyph unicode="m" horiz-adv-x="1863" d="M47 0v104l94 23q2 74 2 157v146v127v92t-1 65.5t-5 71.5l-110 19v84l452 141l37 -22l10 -142q72 86 143.5 125t161.5 39q217 0 283 -178q86 106 157.5 142t155.5 36q168 0 241 -92t73 -272v-236v-149.5t2 -157.5l86 -19v-104h-549v104l78 21q2 74 2 158v147v207 q0 104 -20.5 139t-73.5 35q-66 0 -131 -49q2 -16 3 -34.5t1 -39.5v-258v-149.5t2 -159.5l78 -17v-104h-551v104l88 23q2 72 2 156v147v207q0 94 -19.5 134t-79.5 40q-31 0 -63.5 -14.5t-63.5 -36.5v-330v-148t3 -161l77 -17v-104h-565z" />
<glyph unicode="n" horiz-adv-x="1269" d="M47 0v104l94 23q2 74 2 157v146v127q0 57 -1 92t-2 65.5t-3 71.5l-110 19v84l452 141l37 -22l10 -142q84 98 155 131t157 33q133 0 221 -87t88 -255v-258v-149.5t2 -157.5l86 -19v-104h-567v104l88 21q2 74 2 158v147v232q0 82 -21.5 115.5t-70.5 33.5q-57 0 -134 -53 v-328v-148t3 -161l77 -17v-104h-565z" />
<glyph unicode="o" horiz-adv-x="1171" d="M586 -33q-176 0 -297 71t-182.5 193.5t-61.5 274.5q0 154 69.5 271.5t191.5 185t280 67.5t279.5 -66.5t191 -184t69.5 -273.5t-62.5 -278t-182 -191.5t-295.5 -69.5zM586 80q68 0 99.5 98t31.5 322q0 223 -32 320.5t-99 97.5q-68 0 -99.5 -97.5t-31.5 -320.5t31.5 -321.5 t99.5 -98.5z" />
<glyph unicode="p" horiz-adv-x="1275" d="M55 -455v107l92 20q2 102 3.5 187.5t1.5 156.5v541q0 57 -1 92t-2.5 65.5t-3.5 71.5l-110 19v84l448 141l35 -18l8 -109q125 127 299 127q113 0 205 -58.5t146.5 -175t54.5 -292.5q0 -168 -63.5 -288t-165 -184.5t-216.5 -64.5q-82 0 -143 25.5t-108 73.5v-50 q0 -70 1 -152.5t3 -180.5l108 -31v-107h-592zM637 827q-27 0 -50.5 -8t-45.5 -22v-604q41 -29 96 -29q82 0 131 83t49 257q0 176 -49 249.5t-131 73.5z" />
<glyph unicode="q" horiz-adv-x="1216" d="M459 492q0 -156 51 -239t133 -83q45 0 84 23v626q-35 14 -72 15q-90 0 -143 -86t-53 -256zM451 -33q-113 0 -205 57.5t-146.5 173t-54.5 289.5t67.5 295t176 184.5t233.5 63.5q145 0 252 -115l277 115l71 -20l-6 -277v-758q0 -76 1 -151.5t3 -153.5l76 -18v-107h-575v107 l110 31q2 72 2 145.5v146.5v107q-59 -59 -128.5 -87t-153.5 -28z" />
<glyph unicode="r" horiz-adv-x="989" d="M43 0v104l98 23q2 74 2 157v146v129q0 57 -1 92t-2 64.5t-3 70.5l-110 19v84l452 141l37 -22l16 -238q41 133 118 196.5t151 63.5q76 0 128 -44t62 -138q-4 -82 -49 -128t-106 -46q-94 0 -172 112l-11 15q-37 -41 -72.5 -106.5t-48.5 -135.5v-129v-139t3 -152l159 -35 v-104h-651z" />
<glyph unicode="s" horiz-adv-x="948" d="M422 -33q-213 0 -377 101l10 262h187l32 -213q35 -14 72 -21.5t76 -7.5q78 0 121 24.5t43 82.5q0 41 -32 73.5t-134 59.5l-117 30q-121 33 -184.5 116t-63.5 202q0 154 118 254t339 100q94 0 175 -20.5t165 -61.5l-16 -231h-189l-45 182q-20 4 -43.5 7t-56.5 3 q-57 0 -97 -25.5t-40 -78.5q0 -33 28.5 -63.5t134.5 -59.5l115 -31q143 -39 205.5 -120.5t62.5 -202.5q0 -180 -132 -270.5t-357 -90.5z" />
<glyph unicode="t" horiz-adv-x="761" d="M459 -33q-152 0 -236 71t-84 234q0 59 1 109.5t1 110.5v352h-116v135l139 18l123 291h243v-291h189v-153h-189v-549q0 -70 29 -102.5t72 -32.5q47 0 100 41l51 -47q-41 -88 -118.5 -137.5t-204.5 -49.5z" />
<glyph unicode="u" horiz-adv-x="1263" d="M760 -25l-8 162q-61 -80 -141.5 -125t-178.5 -45q-135 0 -218 83t-81 286l8 495l-106 25v92l465 72l37 -23l-11 -290v-381q0 -80 26 -110t64 -30q31 0 65 20.5t67 51.5l8 576l-99 22v82l453 82l37 -23l-6 -290v-584l94 -21v-104z" />
<glyph unicode="v" horiz-adv-x="1097" d="M702 901v96h385v-96l-122 -20l-338 -881h-185l-364 881l-98 20v96h616v-96l-109 -24l170 -471l158 473z" />
<glyph unicode="w" horiz-adv-x="1638" d="M1255 901v96h373v-96l-119 -14l-317 -887h-184l-224 631l-219 -631h-184l-322 889l-79 12v96h569v-96l-105 -14l142 -484l157 484l-106 14v96h520v-96l-94 -14l141 -465l154 465z" />
<glyph unicode="x" horiz-adv-x="1153" d="M743 901v96h347v-96l-115 -22l-215 -304l272 -452l101 -19v-104h-623v104l76 11l-131 221l-136 -215l80 -17v-104h-379v104l146 21l223 319l-262 443l-102 14v96h622v-96l-78 -12l129 -211l125 205z" />
<glyph unicode="y" horiz-adv-x="1112" d="M721 901v96h381v-96l-123 -20l-387 -1002q-43 -111 -90 -189.5t-112.5 -121.5t-166.5 -43q-84 0 -148.5 47t-72.5 115q14 78 65.5 113.5t116.5 35.5q41 0 93.5 -17.5t93.5 -84.5l14 -23q35 41 66.5 92.5t52.5 108.5l-424 973l-90 16v96h620v-94l-121 -26l179 -494 l172 494z" />
<glyph unicode="z" horiz-adv-x="958" d="M29 0v84l481 817h-225l-56 -227l-188 8l16 315h865v-82l-459 -817h225l60 248h190l-20 -346h-889z" />
<glyph unicode="{" horiz-adv-x="684" d="M82 508v123q86 20 130 43.5t58.5 52.5t14.5 64q0 55 -18.5 103t-43 95t-43 97.5t-18.5 107.5q0 94 53 153.5t144.5 88t203.5 28.5h60v-121l-56 -6q-53 -6 -85.5 -47t-32.5 -104q0 -49 16 -103.5t31.5 -112t15.5 -118.5q0 -94 -51 -169t-154 -114q102 -39 153.5 -112.5 t51.5 -169.5q0 -59 -15.5 -117.5t-31.5 -113t-16 -103.5q0 -63 32.5 -104.5t85.5 -47.5l56 -6v-121h-60q-113 0 -204 29t-144 88t-53 154q0 59 18.5 108t43 96.5t43 95.5t18.5 103q0 37 -14.5 64.5t-58.5 51.5t-130 44z" />
<glyph unicode="|" horiz-adv-x="573" d="M170 -512v2048h233v-2048h-233z" />
<glyph unicode="}" horiz-adv-x="684" d="M602 631v-123q-86 -20 -129 -44t-58.5 -51.5t-15.5 -64.5q0 -55 18.5 -103t43 -95.5t43 -96.5t18.5 -108q0 -94 -53 -153.5t-143 -88.5t-205 -29h-60v121l56 6q53 6 86 47t33 105q0 49 -15.5 103.5t-32 112.5t-16.5 118q0 96 51 169.5t154 112.5q-102 39 -153.5 114 t-51.5 169q0 61 16.5 118.5t32 112t15.5 103.5q0 63 -33 104t-86 47l-56 6v121h60q115 0 205 -28.5t143 -88t53 -153.5q0 -57 -18.5 -107.5t-43 -97.5t-43 -95t-18.5 -103q0 -35 15.5 -64t58.5 -52.5t129 -43.5z" />
<glyph unicode="~" horiz-adv-x="1126" d="M610 803q63 -63 101.5 -80.5t64.5 -17.5q41 0 66.5 43t31.5 155l179 -16q0 -150 -41 -237t-105.5 -122.5t-140.5 -35.5q-66 0 -127 25.5t-129 92.5q-61 61 -93 80t-65 19q-41 0 -67.5 -42t-32.5 -157l-178 16q0 147 38 234.5t103.5 124.5t142.5 37q59 0 122.5 -26.5 t129.5 -92.5z" />
<glyph unicode="&#xa2;" d="M743 -92h-143v188q-158 12 -279.5 79t-190.5 181.5t-69 268.5q0 225 141.5 366.5t397.5 163.5v176h143v-174q158 -12 257.5 -97t107.5 -212q-31 -109 -125 -109q-68 0 -110 37t-60 146l-20 120q-10 2 -22.5 3.5t-27.5 1.5v-771q84 10 151 47t120 89l80 -78 q-51 -94 -141.5 -155.5t-209.5 -78.5v-192zM430 655q0 -133 50 -226t120 -132v735q-76 -33 -123 -128t-47 -249z" />
<glyph unicode="&#xa3;" d="M102 0v223q90 55 140.5 127t50.5 144q0 14 -1 26t-3 23h-154v123h115q-29 59 -58.5 121.5t-29.5 166.5q0 125 68.5 203t178 116t232.5 38q186 0 291.5 -81t118.5 -226q-14 -61 -52 -87t-86 -26q-63 0 -109 36t-65 146l-20 125h-6q-106 0 -165 -61.5t-59 -161.5 q0 -86 19.5 -162t32.5 -147h336v-123h-328q-2 -6 -2 -12.5t-2 -12.5q-12 -76 -52 -133t-114 -98h661v-287h-938z" />
<glyph unicode="&#xa5;" d="M127 279v122h258v144h-258v123h217l-254 483l-98 10v119h637v-119l-152 -14l199 -442l205 434l-133 22v119h405v-119l-111 -22l-241 -471h219v-123h-258v-144h258v-122h-258q0 -31 1 -66t1 -78l174 -16v-119h-731v119l176 16q0 45 1 79t1 65h-258z" />
<glyph unicode="&#xa8;" horiz-adv-x="819" d="M152 1161q-66 0 -119 42t-53 120t53 120t119 42q70 0 121 -42t51 -120t-51 -120t-121 -42zM668 1161q-66 0 -119 42t-53 120t53.5 120t118.5 42q70 0 121 -42t51 -120t-51 -120t-121 -42z" />
<glyph unicode="&#xa9;" horiz-adv-x="1515" d="M197 668q0 -178 77.5 -311.5t206.5 -207t279 -73.5q152 0 279.5 73.5t205.5 206.5t78 312q0 180 -78 312t-206 206t-279 74q-150 0 -279 -74t-206.5 -206t-77.5 -312zM61 668q0 162 56.5 292t155 223t224.5 143t263 50q139 0 264 -50t222 -143t153.5 -223.5t56.5 -291.5 q0 -160 -56.5 -291t-153.5 -224.5t-222 -143.5t-264 -50q-137 0 -263 50t-224.5 143.5t-155 224.5t-56.5 291zM854 340q35 0 72 16l35 148h100l-4 -193q-45 -27 -108.5 -46t-147.5 -19q-115 0 -213.5 46t-157.5 139t-59 235q0 150 63.5 245t164.5 141t214 46q78 0 132 -16.5 t104 -45.5l6 -196h-101l-36 151q-27 12 -60 13q-88 0 -155.5 -84t-67.5 -250t66.5 -248t152.5 -82z" />
<glyph unicode="&#xab;" horiz-adv-x="1183" d="M553 45l-502 399v146l502 399l80 -80l-320 -393l320 -391zM1012 45l-502 399v146l502 399l80 -80l-320 -393l320 -391z" />
<glyph unicode="&#xad;" horiz-adv-x="716" d="M82 420v205h553v-205h-553z" />
<glyph unicode="&#xae;" horiz-adv-x="970" d="M168 1047q0 -100 43 -173t115.5 -112t158.5 -39q88 0 159 39t114 111.5t43 173.5q0 100 -43 171.5t-114 109.5t-159 38q-86 0 -158.5 -38t-115.5 -109.5t-43 -171.5zM61 1047q0 131 58.5 224t156 143t209.5 50q115 0 211.5 -50t154.5 -143t58 -224q0 -129 -58 -224.5 t-154.5 -146.5t-211.5 -51q-113 0 -210 51t-155.5 146.5t-58.5 224.5zM711 901v-45q-27 -6 -40.5 -8t-37.5 -2q-45 0 -73 16.5t-32 57.5l-6 59q-2 29 -12 43t-35 14h-16v-131l43 -4v-45h-211v45l41 4v303l-41 4v45h215q76 0 116 -26.5t40 -73.5q0 -29 -24 -56.5t-93 -37.5 q63 -8 85.5 -33.5t26.5 -73.5l7 -51zM471 1210h-12v-129h12q43 0 58.5 20.5t15.5 45.5q0 63 -74 63z" />
<glyph unicode="&#xb4;" horiz-adv-x="819" d="M200 1202q14 25 30.5 53.5t45.5 75.5t76 127q47 78 85 113t97 35q47 0 86 -35t39 -94q0 -55 -43 -102.5t-111 -94.5t-107.5 -74.5t-64 -44t-45.5 -31.5z" />
<glyph unicode="&#xb8;" horiz-adv-x="819" d="M266 -184l31 194h118l-12 -108q121 -23 167 -71t46 -107q0 -82 -73.5 -135.5t-221.5 -53.5q-51 0 -91 8t-81 23l25 106q59 -20 112 -20t78 19.5t25 52.5q0 86 -123 92z" />
<glyph unicode="&#xbb;" horiz-adv-x="1183" d="M172 989l502 -399v-146l-502 -399l-80 80l320 391l-320 393zM631 989l502 -399v-146l-502 -399l-80 80l320 391l-320 393z" />
<glyph unicode="&#xd3;" horiz-adv-x="1433" d="M717 -41q-129 0 -248 43t-212 131t-146.5 221t-53.5 314q0 180 54.5 313t146.5 221t211 131t248 43t247.5 -43t211 -131t146.5 -221t54 -313t-53 -313.5t-146.5 -221.5t-212 -131t-247.5 -43zM717 84q88 0 140 72.5t75.5 204t23.5 307.5t-23.5 307t-75.5 204.5t-140 73.5 q-86 0 -139.5 -73.5t-77 -204.5t-23.5 -307t23.5 -307.5t77 -204t139.5 -72.5zM555 1501q59 59 121 116.5t119 110.5q53 49 89 66.5t75 17.5q55 0 90 -37.5t35 -80.5q0 -29 -21.5 -69t-99.5 -73q-88 -37 -173 -71.5t-171 -71.5z" />
<glyph unicode="&#xf3;" horiz-adv-x="1171" d="M586 -33q-176 0 -297 71t-182.5 193.5t-61.5 274.5q0 154 69.5 271.5t191.5 185t280 67.5t279.5 -66.5t191 -184t69.5 -273.5t-62.5 -278t-182 -191.5t-295.5 -69.5zM586 80q68 0 99.5 98t31.5 322q0 223 -32 320.5t-99 97.5q-68 0 -99.5 -97.5t-31.5 -320.5t31.5 -321.5 t99.5 -98.5zM485 1202q14 25 30.5 53.5t45.5 75.5t76 127q47 78 85 113t97 35q47 0 86 -35t39 -94q0 -55 -43 -102.5t-111 -94.5t-107.5 -74.5t-64 -44t-45.5 -31.5z" />
<glyph unicode="&#x104;" horiz-adv-x="1392" d="M578 983l-156 -485h307zM20 0v121l162 22l410 1192h246l413 -1208l111 -12v-115h-662v115l142 20l-74 234h-387l-72 -224l142 -24v-121h-431zM850 -260q0 100 67.5 165.5t188.5 110.5h94q-59 -33 -81.5 -71.5t-22.5 -85.5q0 -61 40 -97t107 -36q41 0 67 5t46 11l31 -104 q-51 -49 -129 -76t-166 -27q-119 0 -180.5 60.5t-61.5 144.5z" />
<glyph unicode="&#x105;" horiz-adv-x="1105" d="M651 -260q0 80 48.5 134t136.5 93q-90 4 -145.5 41t-82.5 105q-59 -66 -119.5 -106t-171.5 -40q-121 0 -193.5 69.5t-72.5 194.5q0 80 36 142.5t127 115t257 95.5q25 6 57.5 15t67.5 17v72q0 131 -29.5 181.5t-126.5 50.5h-15h-15v-70q0 -125 -51.5 -178.5t-116.5 -53.5 q-125 0 -156 111q0 133 126 217t374 84q213 0 300 -94t87 -305v-467q0 -35 35 -35q12 0 24 9t31 36l59 -33q-20 -51 -47.5 -83.5t-66.5 -57.5q-55 -35 -83 -67.5t-28 -82.5q0 -57 40 -91.5t107 -34.5q41 0 67 5t46 11l31 -105q-55 -45 -133 -73.5t-162 -28.5 q-117 0 -179.5 61.5t-62.5 145.5zM403 295q0 -76 31 -113t76 -37q39 0 86 35v340q-16 -6 -31.5 -11t-27.5 -11q-43 -20 -88.5 -69.5t-45.5 -133.5z" />
<glyph unicode="&#x106;" horiz-adv-x="1265" d="M776 -41q-145 0 -275 40t-229.5 126t-157 220t-57.5 323q0 193 61.5 327.5t166 218.5t237.5 123t275 39q129 0 223 -27.5t180 -74.5l8 -326h-168l-65 281q-55 27 -121 26q-98 0 -184 -58t-139.5 -188t-53.5 -343q0 -211 52.5 -340t137.5 -186.5t179 -57.5q72 0 143 33 l64 272h168l-9 -321q-76 -43 -185.5 -75t-250.5 -32zM635 1513q59 59 121 116.5t119 110.5q53 49 89 66.5t75 17.5q55 0 90 -37.5t35 -80.5q0 -29 -21.5 -69t-99.5 -73q-88 -37 -173 -71.5t-171 -71.5z" />
<glyph unicode="&#x107;" horiz-adv-x="1071" d="M575 -33q-139 0 -259.5 58.5t-195.5 175t-75 295.5q0 170 78 289.5t211 182t297 62.5q115 0 201 -43t136 -113.5t54 -154.5q-39 -119 -156 -119q-63 0 -116.5 49t-59.5 185l-4 86h-8q-47 0 -99.5 -36t-88 -119t-35.5 -224q0 -170 72.5 -261.5t195.5 -91.5q68 0 117 28 t92 69l80 -78q-66 -125 -179 -182.5t-258 -57.5zM434 1202q14 25 30.5 53.5t45.5 75.5t76 127q47 78 85 113t97 35q47 0 86 -35t39 -94q0 -55 -43 -102.5t-111 -94.5t-107.5 -74.5t-64 -44t-45.5 -31.5z" />
<glyph unicode="&#x118;" horiz-adv-x="1210" d="M57 1214v121h1057l14 -348h-192l-39 227h-287q-2 -113 -3 -227.5t-1 -228.5h189l24 147h129v-424h-129l-22 146h-191q0 -135 1 -260t3 -248h328l39 229h192l-14 -348h-1098v121l142 14q2 123 2 249v251v65v250t-2 250zM692 -260q0 100 67.5 165.5t188.5 110.5h94 q-59 -33 -81.5 -71.5t-22.5 -85.5q0 -61 40 -97t107 -36q41 0 67 5t46 11l31 -104q-51 -49 -129 -76t-166 -27q-119 0 -180.5 60.5t-61.5 144.5z" />
<glyph unicode="&#x119;" horiz-adv-x="1077" d="M569 920q-45 0 -77.5 -70t-36.5 -260h96q74 0 99.5 29.5t25.5 107.5q0 106 -33 149.5t-74 43.5zM471 -260q0 78 40 134t114 95q-12 -2 -23.5 -2h-23.5q-152 0 -273 65.5t-190.5 186.5t-69.5 285q0 133 47 231.5t127 164t178.5 98t198.5 32.5q147 0 244.5 -60.5 t146.5 -161.5t49 -226q0 -33 -2 -56.5t-8 -52.5h-569q16 -150 88.5 -217.5t163.5 -67.5q78 0 134 28t99 69l80 -78q-68 -127 -197 -191q-61 -31 -84.5 -70.5t-23.5 -86.5q0 -61 40 -97t107 -36q41 0 66.5 5t46.5 11l31 -104q-51 -49 -129 -76t-166 -27q-119 0 -180.5 60.5 t-61.5 144.5z" />
<glyph unicode="&#x141;" horiz-adv-x="1175" d="M57 1214v121h715v-121l-164 -16q-2 -86 -2 -173v-177l221 113v-173l-221 -112v-70q0 -111 1 -233.5t3 -249.5h310l55 285h180l-20 -408h-1078v121l142 14q2 90 2 178v166l-148 -76v172l148 76v49v250t-2 250z" />
<glyph unicode="&#x142;" horiz-adv-x="684" d="M55 0v104l92 21q2 78 3.5 153.5t1.5 151.5v123l-119 -68v172l119 68v547l-111 20v92l473 93l35 -23l-8 -285v-243l123 69v-172l-123 -69v-324q0 -76 1 -152.5t3 -154.5l92 -19v-104h-582z" />
<glyph unicode="&#x143;" horiz-adv-x="1484" d="M877 1214v121h559v-121l-174 -26v-1188h-215l-680 952v-805l241 -26v-121h-559v121l174 24v1008l-35 49l-139 10v123h522l547 -749v602zM579 1493q59 59 121 116.5t119 110.5q53 49 89 66.5t75 17.5q55 0 90 -37.5t35 -80.5q0 -29 -21.5 -69t-99.5 -73 q-88 -37 -173 -71.5t-171 -71.5z" />
<glyph unicode="&#x144;" horiz-adv-x="1269" d="M47 0v104l94 23q2 74 2 157v146v127q0 57 -1 92t-2 65.5t-3 71.5l-110 19v84l452 141l37 -22l10 -142q84 98 155 131t157 33q133 0 221 -87t88 -255v-258v-149.5t2 -157.5l86 -19v-104h-567v104l88 21q2 74 2 158v147v232q0 82 -21.5 115.5t-70.5 33.5q-57 0 -134 -53 v-328v-148t3 -161l77 -17v-104h-565zM596 1202q14 25 30.5 53.5t45.5 75.5t76 127q47 78 85 113t97 35q47 0 86 -35t39 -94q0 -55 -43 -102.5t-111 -94.5t-107.5 -74.5t-64 -44t-45.5 -31.5z" />
<glyph unicode="&#x15a;" horiz-adv-x="1132" d="M526 -41q-115 0 -240.5 24.5t-222.5 82.5l13 311h217l41 -258q92 -31 194 -31q96 0 141.5 52.5t45.5 121.5q0 74 -34 115t-112 78l-90 43q-190 90 -290.5 196.5t-100.5 280.5q0 188 140.5 294.5t387.5 106.5q113 0 221.5 -26.5t186.5 -75.5l-18 -295h-213l-37 244 q-61 25 -127 24q-76 0 -130.5 -48t-54.5 -120q0 -76 43 -118.5t125 -83.5l103 -50q129 -61 210 -123.5t118.5 -139.5t37.5 -183q0 -121 -60 -216t-183.5 -150.5t-311.5 -55.5zM465 1501q59 59 121 116.5t119 110.5q53 49 89 66.5t75 17.5q55 0 90 -37.5t35 -80.5 q0 -29 -21.5 -69t-99.5 -73q-88 -37 -173 -71.5t-171 -71.5z" />
<glyph unicode="&#x15b;" horiz-adv-x="948" d="M422 -33q-213 0 -377 101l10 262h187l32 -213q35 -14 72 -21.5t76 -7.5q78 0 121 24.5t43 82.5q0 41 -32 73.5t-134 59.5l-117 30q-121 33 -184.5 116t-63.5 202q0 154 118 254t339 100q94 0 175 -20.5t165 -61.5l-16 -231h-189l-45 182q-20 4 -43.5 7t-56.5 3 q-57 0 -97 -25.5t-40 -78.5q0 -33 28.5 -63.5t134.5 -59.5l115 -31q143 -39 205.5 -120.5t62.5 -202.5q0 -180 -132 -270.5t-357 -90.5zM413 1202q14 25 30.5 53.5t45.5 75.5t76 127q47 78 85 113t97 35q47 0 86 -35t39 -94q0 -55 -43 -102.5t-111 -94.5t-107.5 -74.5 t-64 -44t-45.5 -31.5z" />
<glyph unicode="&#x179;" horiz-adv-x="1163" d="M41 0v102l610 1110h-360l-53 -264h-177l17 387h1032v-102l-610 -1110h391l51 264h180l-16 -387h-1065zM522 1493q59 59 121 116.5t119 110.5q53 49 89 66.5t75 17.5q55 0 90 -37.5t35 -80.5q0 -29 -21.5 -69t-99.5 -73q-88 -37 -173 -71.5t-171 -71.5z" />
<glyph unicode="&#x17a;" horiz-adv-x="958" d="M29 0v84l481 817h-225l-56 -227l-188 8l16 315h865v-82l-459 -817h225l60 248h190l-20 -346h-889zM440 1202q14 25 30.5 53.5t45.5 75.5t76 127q47 78 85 113t97 35q47 0 86 -35t39 -94q0 -55 -43 -102.5t-111 -94.5t-107.5 -74.5t-64 -44t-45.5 -31.5z" />
<glyph unicode="&#x17b;" horiz-adv-x="1163" d="M41 0v102l610 1110h-360l-53 -264h-177l17 387h1032v-102l-610 -1110h391l51 264h180l-16 -387h-1065zM653 1430q-78 0 -133 50t-55 126q0 78 55 127t133 49t133 -49.5t55 -126.5q0 -76 -55 -126t-133 -50z" />
<glyph unicode="&#x17c;" horiz-adv-x="958" d="M29 0v84l481 817h-225l-56 -227l-188 8l16 315h865v-82l-459 -817h225l60 248h190l-20 -346h-889zM541 1151q-78 0 -133 50t-55 126q0 78 55 127t133 49t133 -49t55 -127q0 -76 -55 -126t-133 -50z" />
<glyph unicode="&#x2c6;" horiz-adv-x="770" d="M668 1114l-283 203l-283 -203l-82 78l287 358h156l287 -358z" />
<glyph unicode="&#x2da;" horiz-adv-x="819" d="M410 1249q59 0 91 42t32 89q0 51 -32 91t-91 40t-91 -39.5t-32 -91.5q0 -47 32 -89t91 -42zM410 1135q-111 0 -185.5 66.5t-74.5 178.5q0 113 74.5 179.5t185.5 66.5t185.5 -64.5t74.5 -181.5t-74.5 -181t-185.5 -64z" />
<glyph unicode="&#x2dc;" horiz-adv-x="819" d="M39 1206q16 143 85 218t159 75q45 0 83 -15.5t68 -33.5q35 -20 65 -35.5t67 -15.5q88 0 127 104l96 -41q-16 -141 -84 -218t-154 -77q-41 0 -83 15.5t-77 34.5q-29 16 -60.5 33.5t-70.5 17.5q-43 0 -74.5 -28t-50.5 -75z" />
<glyph unicode="&#x300;" horiz-adv-x="0" d="M141 1202l-88 -72q-20 14 -44.5 31t-64.5 45.5t-108 75.5t-110.5 93t-42.5 102q0 59 39.5 94t84.5 35q59 0 97.5 -35t83.5 -111q49 -78 77.5 -126t46 -76.5t29.5 -55.5z" />
<glyph unicode="&#x301;" horiz-adv-x="0" d="M-162 1202q14 25 30.5 53.5t45.5 75.5t76 127q47 78 85 113t97 35q47 0 86 -35t39 -94q0 -55 -43 -102.5t-111 -94.5t-107.5 -74.5t-64 -44t-45.5 -31.5z" />
<glyph unicode="&#x302;" horiz-adv-x="0" d="M283 1114l-283 203l-283 -203l-82 78l287 358h156l287 -358z" />
<glyph unicode="&#x303;" horiz-adv-x="0" d="M-375 1206q16 143 85 218t159 75q45 0 83 -15.5t68 -33.5q35 -20 65 -35.5t67 -15.5q88 0 127 104l96 -41q-16 -141 -84 -218t-154 -77q-41 0 -83 15.5t-77 34.5q-29 16 -60.5 33.5t-70.5 17.5q-43 0 -74.5 -28t-50.5 -75z" />
<glyph unicode="&#x307;" horiz-adv-x="0" d="M0 1151q-78 0 -133 50t-55 126q0 78 55 127t133 49t133 -49t55 -127q0 -76 -55 -126t-133 -50z" />
<glyph unicode="&#x308;" horiz-adv-x="0" d="M-258 1161q-66 0 -119 42t-53 120t53 120t119 42q70 0 121 -42t51 -120t-51 -120t-121 -42zM258 1161q-66 0 -119 42t-53 120t53.5 120t118.5 42q70 0 121 -42t51 -120t-51 -120t-121 -42z" />
<glyph unicode="&#x30a;" horiz-adv-x="0" d="M0 1249q59 0 91 42t32 89q0 51 -32 91t-91 40t-91 -39.5t-32 -91.5q0 -47 32 -89t91 -42zM0 1135q-111 0 -185.5 66.5t-74.5 178.5q0 113 74.5 179.5t185.5 66.5t185.5 -64.5t74.5 -181.5t-74.5 -181t-185.5 -64z" />
<glyph unicode="&#x327;" horiz-adv-x="0" d="M-86 -184l31 194h118l-12 -108q121 -23 167 -71t46 -107q0 -82 -73.5 -135.5t-221.5 -53.5q-51 0 -91 8t-81 23l25 106q59 -20 112 -20t78 19.5t25 52.5q0 86 -123 92z" />
<glyph unicode="&#x328;" horiz-adv-x="0" d="M-287 -260q0 100 67.5 165.5t188.5 110.5h94q-59 -33 -81.5 -71.5t-22.5 -85.5q0 -61 40 -97t107 -36q41 0 67 5t46 11l31 -104q-51 -49 -129 -76t-166 -27q-119 0 -180.5 60.5t-61.5 144.5z" />
<glyph unicode="&#x2000;" horiz-adv-x="912" />
<glyph unicode="&#x2001;" horiz-adv-x="1824" />
<glyph unicode="&#x2002;" horiz-adv-x="912" />
<glyph unicode="&#x2003;" horiz-adv-x="1824" />
<glyph unicode="&#x2004;" horiz-adv-x="608" />
<glyph unicode="&#x2005;" horiz-adv-x="456" />
<glyph unicode="&#x2006;" horiz-adv-x="304" />
<glyph unicode="&#x2007;" horiz-adv-x="304" />
<glyph unicode="&#x2008;" horiz-adv-x="228" />
<glyph unicode="&#x2009;" horiz-adv-x="364" />
<glyph unicode="&#x200a;" horiz-adv-x="101" />
<glyph unicode="&#x2010;" horiz-adv-x="716" d="M82 420v205h553v-205h-553z" />
<glyph unicode="&#x2011;" horiz-adv-x="716" d="M82 420v205h553v-205h-553z" />
<glyph unicode="&#x2012;" horiz-adv-x="716" d="M82 420v205h553v-205h-553z" />
<glyph unicode="&#x2013;" horiz-adv-x="1126" d="M82 420v205h962v-205h-962z" />
<glyph unicode="&#x2014;" horiz-adv-x="1740" d="M82 420v205h1577v-205h-1577z" />
<glyph unicode="&#x2018;" horiz-adv-x="446" d="M39 1096q0 135 90 241.5t240 159.5l37 -86q-41 -20 -89.5 -65.5t-89.5 -102.5l101 -67q47 -33 63.5 -71t16.5 -81q0 -70 -53.5 -119t-118.5 -49q-51 0 -86 20.5t-60 38.5q-27 41 -39 88.5t-12 92.5z" />
<glyph unicode="&#x2019;" horiz-adv-x="446" d="M408 1257q0 -135 -90.5 -241.5t-239.5 -159.5l-37 86q41 23 90 67t88 101l-100 68q-47 33 -63.5 70.5t-16.5 80.5q0 72 53 120t119 48q51 0 86 -20.5t59 -38.5q27 -41 39.5 -87.5t12.5 -93.5z" />
<glyph unicode="&#x201a;" horiz-adv-x="446" d="M408 90q0 -135 -90.5 -241.5t-239.5 -159.5l-37 86q41 23 90 67t88 101l-100 68q-47 33 -63.5 70.5t-16.5 80.5q0 72 53 120t119 48q51 0 86 -20.5t59 -38.5q27 -41 39.5 -87.5t12.5 -93.5z" />
<glyph unicode="&#x201c;" horiz-adv-x="892" d="M39 1096q0 135 90 241.5t240 159.5l37 -86q-41 -20 -89.5 -65.5t-89.5 -102.5l101 -67q47 -33 63.5 -71t16.5 -81q0 -70 -53.5 -119t-118.5 -49q-51 0 -86 20.5t-60 38.5q-27 41 -39 88.5t-12 92.5zM485 1096q0 135 90 241.5t240 159.5l37 -86q-41 -20 -89.5 -65.5 t-89.5 -102.5l101 -67q47 -33 63.5 -71t16.5 -81q0 -70 -53.5 -119t-118.5 -49q-51 0 -86 20.5t-60 38.5q-27 41 -39 88.5t-12 92.5z" />
<glyph unicode="&#x201d;" horiz-adv-x="892" d="M408 1257q0 -135 -90.5 -241.5t-239.5 -159.5l-37 86q41 23 90 67t88 101l-100 68q-47 33 -63.5 70.5t-16.5 80.5q0 72 53 120t119 48q51 0 86 -20.5t59 -38.5q27 -41 39.5 -87.5t12.5 -93.5zM854 1257q0 -135 -90.5 -241.5t-239.5 -159.5l-37 86q41 23 90 67t88 101 l-100 68q-47 33 -63.5 70.5t-16.5 80.5q0 72 53 120t119 48q51 0 86 -20.5t59 -38.5q27 -41 39.5 -87.5t12.5 -93.5z" />
<glyph unicode="&#x201e;" horiz-adv-x="892" d="M408 90q0 -135 -90.5 -241.5t-239.5 -159.5l-37 86q41 23 90 67t88 101l-100 68q-47 33 -63.5 70.5t-16.5 80.5q0 72 53 120t119 48q51 0 86 -20.5t59 -38.5q27 -41 39.5 -87.5t12.5 -93.5zM854 90q0 -135 -90.5 -241.5t-239.5 -159.5l-37 86q41 23 90 67t88 101l-100 68 q-47 33 -63.5 70.5t-16.5 80.5q0 72 53 120t119 48q51 0 86 -20.5t59 -38.5q27 -41 39.5 -87.5t12.5 -93.5z" />
<glyph unicode="&#x2026;" horiz-adv-x="1843" d="M307 -33q-84 0 -142.5 57.5t-58.5 139.5q0 84 58.5 143.5t142.5 59.5t142.5 -59.5t58.5 -143.5q0 -82 -58.5 -139.5t-142.5 -57.5zM921 -33q-84 0 -142.5 57.5t-58.5 139.5q0 84 58.5 143.5t142.5 59.5t142.5 -59.5t58.5 -143.5q0 -82 -58.5 -139.5t-142.5 -57.5z M1536 -33q-84 0 -142.5 57.5t-58.5 139.5q0 84 58.5 143.5t142.5 59.5t142.5 -59.5t58.5 -143.5q0 -82 -58.5 -139.5t-142.5 -57.5z" />
<glyph unicode="&#x202f;" horiz-adv-x="364" />
<glyph unicode="&#x2039;" horiz-adv-x="724" d="M553 45l-502 399v146l502 399l80 -80l-320 -393l320 -391z" />
<glyph unicode="&#x203a;" horiz-adv-x="724" d="M172 989l502 -399v-146l-502 -399l-80 80l320 391l-320 393z" />
<glyph unicode="&#x2044;" horiz-adv-x="286" d="M-252 -72l-110 72l901 1341l110 -71z" />
<glyph unicode="&#x205f;" horiz-adv-x="456" />
<glyph unicode="&#x2070;" horiz-adv-x="765" d="M289 1227q0 -139 11 -214t32.5 -102.5t48.5 -27.5q29 0 50.5 27.5t33.5 102t12 214.5q0 141 -12 216t-33.5 103.5t-50.5 28.5q-27 0 -48.5 -27.5t-32.5 -103.5t-11 -217zM381 1645q86 0 160.5 -45.5t120 -137.5t45.5 -235q0 -141 -45.5 -232.5t-120 -136.5t-160.5 -45 t-160 45t-118 136t-44 233q0 143 44 235t118 137.5t160 45.5z" />
<glyph unicode="&#x20ac;" d="M719 -33q-217 0 -369.5 111.5t-197.5 365.5h-132v123h117q-2 18 -2 37v39q0 23 1 45.5t3 42.5h-119v123h136q35 164 118.5 264.5t202.5 146.5t254 46q109 0 194 -34t135 -96.5t50 -148.5q-8 -63 -45 -88.5t-78 -25.5q-59 0 -110.5 33.5t-67.5 148.5l-14 96q-14 2 -28.5 2 h-31.5q-78 0 -146.5 -83t-96.5 -261h378v-123h-391q-2 -20 -2 -42.5v-45.5v-38.5t2 -37.5h391v-123h-378q31 -182 111.5 -273t178.5 -91h10.5h10.5l14 98q16 115 67.5 148.5t110.5 33.5q41 0 78 -25.5t45 -88.5q0 -86 -52 -148.5t-142 -96.5t-205 -34z" />
<glyph unicode="&#x2122;" horiz-adv-x="1644" d="M743 1335h275l127 -307l108 307h285v-69l-55 -4v-461l55 -4v-70h-346v70l61 6v323l-153 -399h-68l-155 393l-3 -311l91 -12v-70h-258v70l96 12l6 451l-66 6v69zM106 1153v182h594l-2 -182h-102l-12 115h-66v-465l66 -6v-70h-361v70l64 6v465h-66l-12 -115h-103z" />
<glyph unicode="&#x2212;" horiz-adv-x="1126" d="M1065 553h-1004v205h1004v-205z" />
<glyph unicode="&#x25fc;" horiz-adv-x="993" d="M0 993h993v-993h-993v993z" />
<glyph horiz-adv-x="1105" d="M78 0v203q66 66 131 128t127 124q94 96 158.5 173t97.5 155.5t33 174.5q0 117 -51.5 179.5t-141.5 62.5h-15h-18l-18 -147q-10 -78 -37 -118t-61.5 -54.5t-67.5 -14.5q-47 0 -86 24.5t-59 65.5q0 115 68.5 194t182 120t250.5 41q156 0 253.5 -48.5t143.5 -128t46 -180.5 q0 -154 -130 -290t-392 -287q-39 -23 -78 -45.5t-76 -44.5h690v-287h-950z" />
<glyph horiz-adv-x="1105" d="M342 721h51q109 0 171.5 55t62.5 191q0 121 -51.5 177t-141.5 56h-7h-9l-19 -145q-10 -82 -59 -115t-107 -33q-39 0 -70.5 17.5t-49.5 44.5q0 123 58 198.5t154.5 109.5t206.5 34q164 0 268.5 -44t155 -119t50.5 -167q0 -90 -67 -177t-232 -130q188 -33 262.5 -119 t74.5 -223q0 -158 -138 -261.5t-394 -103.5q-238 0 -352.5 96.5t-114.5 262.5q18 53 58 76.5t79 23.5q68 0 111 -40t53 -157l12 -149h11.5h11.5q129 0 196.5 63.5t67.5 206.5q0 125 -63.5 188.5t-178.5 63.5h-61v119z" />
<glyph horiz-adv-x="1105" d="M1073 223h-178v-223h-338v223h-522v219l590 858h270v-811h178v-266zM223 489h334v496z" />
<glyph horiz-adv-x="1105" d="M1051 385q0 -143 -76 -235.5t-205 -137.5t-289 -45q-213 0 -329.5 99.5t-116.5 259.5q18 51 58 75.5t85 24.5q70 0 110 -43t48 -143l10 -154q29 -6 64 -6q96 0 163.5 69.5t67.5 194.5q0 139 -57.5 210t-161.5 71q-51 0 -97 -5.5t-98 -17.5l-57 51l43 625h782v-287h-657 l-16 -223q47 10 97 13t103 3q250 0 389.5 -101t139.5 -298z" />
<glyph horiz-adv-x="1105" d="M551 80q55 0 97 74.5t42 236.5q0 121 -33.5 192.5t-101.5 71.5q-29 0 -58.5 -8t-60.5 -29q-4 -39 -7 -79.5t-3 -83.5q0 -375 125 -375zM1075 432q0 -119 -44 -207t-118.5 -145t-167 -85t-186.5 -28q-156 0 -274.5 63.5t-185 186.5t-66.5 299q0 160 69.5 297t194.5 243.5 t295 173t371 81.5l12 -117q-213 -55 -341 -165.5t-177 -299.5q106 74 258 74q125 0 204.5 -49t117.5 -133.5t38 -188.5z" />
<glyph horiz-adv-x="1105" d="M172 20l616 971h-706v287h946v-178l-479 -1100h-356z" />
<glyph horiz-adv-x="1105" d="M401 1049q0 -39 17.5 -79t69 -81t147.5 -90q43 70 57.5 123t14.5 112q0 70 -40 117t-110 47q-61 0 -108.5 -39.5t-47.5 -109.5zM68 266q0 100 66.5 178t191.5 129q-115 63 -178.5 152.5t-63.5 204.5q0 117 62.5 202t172 132t248.5 47q156 0 252 -41t140.5 -106.5 t44.5 -141.5q0 -82 -56.5 -150.5t-195.5 -128.5q289 -143 288 -395q0 -176 -135 -278.5t-393 -102.5q-233 0 -338.5 84t-105.5 215zM377 285q0 -88 48 -146.5t122 -58.5q80 0 115.5 50t35.5 110q0 78 -52 142t-193 132q-41 -57 -58.5 -111.5t-17.5 -117.5z" />
<glyph horiz-adv-x="1105" d="M406 903q0 -131 46 -206.5t128 -75.5q51 0 92 20q4 37 6 78t2 86q0 162 -16.5 247t-46 116.5t-70.5 31.5q-57 0 -99 -66.5t-42 -230.5zM1069 752q0 -217 -114.5 -383t-317.5 -270.5t-471 -139.5l-21 117q154 49 257.5 110.5t165 146.5t87.5 206q-43 -25 -97 -40.5 t-122 -15.5q-180 0 -294.5 99.5t-114.5 285.5q0 139 72.5 237.5t189.5 152t243 53.5q262 0 399.5 -147.5t137.5 -411.5z" />
<glyph horiz-adv-x="0" d="M-203 1493q59 59 121 116.5t119 110.5q53 49 89 66.5t75 17.5q55 0 90 -37.5t35 -80.5q0 -29 -21.5 -69t-99.5 -73q-88 -37 -173 -71.5t-171 -71.5z" />
<glyph horiz-adv-x="0" d="M0 1430q-78 0 -133 50t-55 126q0 78 55 127t133 49t133 -49.5t55 -126.5q0 -76 -55 -126t-133 -50z" />
</font>
</defs>
</svg>
